<svg width="236" height="60" viewBox="0 0 236 60" fill="none" xmlns="http://www.w3.org/2000/svg">
<g style="mix-blend-mode:screen" clip-path="url(#clip0_101_1803)">
<path d="M56.7531 51.3214H4.79697V49.9486H56.7531C60.7876 49.9486 64.0656 46.6465 64.0656 42.5824C64.0656 40.2782 62.973 38.0708 61.1418 36.6919L61.0698 36.6374L61.8863 35.5428L61.9583 35.5972C64.1317 37.2362 65.4285 39.8488 65.4285 42.5884C65.4285 47.3964 61.5381 51.3214 56.7531 51.3214Z" fill="#721919"/>
<path d="M50.4672 30.7409C47.6575 30.5231 45.1479 31.8657 43.689 34.0006L43.4849 33.6136C43.4849 33.6136 40.0087 41.1733 31.2553 39.371C27.6891 38.6393 24.6693 36.2504 23.0002 32.9906C20.3046 27.717 14.535 18.5969 6.97031 18.7904C-1.39287 19.0082 -1.31482 25.5156 2.41949 28.0073C4.71891 29.5434 6.36994 31.8657 6.9523 34.5872C7.94891 39.2259 10.1403 45.0862 14.8772 45.4188C22.7781 45.9692 49.8789 45.8422 49.8789 45.8422C54.1895 45.8422 57.6477 42.1893 57.3715 37.7865C57.1373 34.0671 54.1595 31.0251 50.4672 30.7409Z" fill="#721919"/>
<path d="M19.5181 39.2198C19.5181 39.2198 17.6749 26.1869 19.7162 25.449C19.7162 25.449 19.8243 20.5383 21.7515 20.7741C21.7515 20.7741 28.1214 16.6314 30.5409 20.8709C32.9604 25.1104 51.9862 41.7297 38.9641 40.1331C33.1825 39.4194 35.1457 51.4847 19.5181 39.2198Z" fill="#721919"/>
<path d="M29.5203 21.2398C29.5203 21.2398 35.7881 23.9794 38.3097 21.3366C40.8313 18.6876 42.2541 21.0826 41.8939 22.026C41.5337 22.9695 34.7315 28.5878 31.4595 25.4249C30.5829 24.5721 29.5203 21.2398 29.5203 21.2398Z" fill="#721919"/>
<path d="M33.0084 25.7272C33.0084 25.7272 39.2763 28.4669 41.7979 25.824C44.3194 23.1751 45.7423 25.57 45.3821 26.5135C45.0218 27.4569 38.2196 33.0753 34.9476 29.9123C34.0711 29.0596 33.0084 25.7272 33.0084 25.7272Z" fill="#721919"/>
<path d="M32.6962 23.2718C32.6962 23.2718 31.7777 18.7239 28.9499 17.8833C28.9499 17.8833 28.9439 15.2525 28.3555 14.6901C27.7732 14.1276 23.7867 9.36801 21.2351 10.2026C18.6896 11.0372 15.9278 13.6559 16.2881 14.684C16.6543 15.7121 19.9804 13.8252 19.9804 13.8252C19.9804 13.8252 18.3053 16.9035 19.7162 18.7179C19.7162 18.7179 18.0051 23.4351 22.706 24.9955C27.407 26.5618 32.6962 23.2718 32.6962 23.2718Z" fill="#721919"/>
<path d="M14.541 51.4061L13.4003 50.2268L20.1665 43.5984L32.282 49.5192L43.3228 43.0299L51.0316 50.0212L49.9389 51.2428L43.1127 45.0559L32.354 51.3819L20.4847 45.5881L14.541 51.4061Z" fill="#721919"/>
<path d="M119 13.9462L122.788 14.5812C122.788 14.5812 125.334 12.9362 126.967 14.9501C128.125 16.3774 130.653 17.1575 132.346 17.4297C133 17.5325 133.222 18.3671 132.718 18.7965C131.583 19.7641 129.53 20.9072 126.24 20.8044C126.24 20.8044 130.965 29.7732 124.967 31.9685L129.242 31.2972C130.137 31.1581 130.947 31.7811 131.055 32.6822C131.397 35.4944 131.499 41.3789 127.465 45.7272C126.979 46.2474 126.138 45.6849 126.42 45.0317C127.675 42.1288 129.302 37.466 128.6 34.1639C128.6 34.1639 118.423 42.9453 102.441 37.6414C102.441 37.6414 94.9908 35.8089 95.7172 29.0414C95.7172 29.0414 114.251 25.0136 122.242 25.9329C122.242 25.9329 123.148 19.7097 121.695 17.8833C120.639 16.5588 119.396 15.0348 118.789 14.303C118.669 14.1397 118.801 13.9099 119 13.9462Z" fill="#721919"/>
<path d="M103.762 35.2162C103.762 35.2162 103.762 40.2056 94.3244 42.9936C93.9341 43.1086 93.6459 43.4472 93.5919 43.8585L92.7394 50.505C92.6673 51.0614 91.8808 51.1037 91.7548 50.5594C90.9623 47.1908 89.9476 41.4212 91.7728 39.7037C94.4084 37.2301 96.948 36.2262 96.7679 34.2123" fill="#721919"/>
<path d="M105.485 37.7502C105.485 37.7502 105.485 40.9314 99.4695 42.7034C99.2174 42.7759 99.0373 42.9936 99.0012 43.2537L98.4549 47.4871C98.4069 47.844 97.9086 47.8682 97.8245 47.5234C97.3202 45.3765 96.6718 41.6994 97.8365 40.6108C99.5176 39.0384 101.133 38.3973 101.018 37.1152" fill="#721919"/>
<path d="M122.722 35.4642C122.722 35.4642 123.358 39.3106 121.125 41.8567C120.987 42.0139 120.993 42.2498 121.131 42.407L121.533 42.8666C121.695 43.0541 121.989 43.0602 122.158 42.8727C123.124 41.7962 125.85 38.3731 124.493 35.186L122.722 35.4642Z" fill="#721919"/>
<path d="M123.202 15.0832L123.052 14.7505C123.01 14.6538 118.621 4.7596 125.754 0.411247L126.174 1.11279C120.392 4.63864 122.968 12.3133 123.646 14.055C124.463 13.7164 125.79 12.9483 125.736 11.9504L126.552 11.9081C126.66 13.9401 123.671 14.932 123.544 14.9743L123.202 15.0832Z" fill="#721919"/>
<path d="M123.394 14.9924C113.752 14.2365 114.293 2.05624 114.299 1.93529L115.115 1.97762C115.115 2.00786 114.971 4.92894 115.956 7.8863C117.241 11.769 119.768 13.8857 123.46 14.176L123.394 14.9924Z" fill="#721919"/>
<path d="M116.1 8.65437L115.716 7.92863L115.908 8.2915L115.716 7.92863C115.74 7.91654 117.883 6.74327 117.487 5.0257L118.285 4.83822C118.826 7.17266 116.214 8.59389 116.1 8.65437Z" fill="#721919"/>
<path d="M124.067 6.3925C123.034 6.3925 122.428 5.89658 122.392 5.8603L122.914 5.22528C122.956 5.26157 124.037 6.10825 125.844 4.98337L126.27 5.68491C125.412 6.22316 124.667 6.3925 124.067 6.3925Z" fill="#721919"/>
<path d="M122.716 10.7892L122.043 10.3175C122.23 10.0454 123.911 7.66858 125.376 7.66858V8.49108C124.595 8.49712 123.328 9.90021 122.716 10.7892Z" fill="#721919"/>
<path d="M115.668 12.8092C115.115 12.8092 114.497 12.6217 113.878 12.1016L114.401 11.4666C115.74 12.5915 116.874 11.5331 116.922 11.4847L117.487 12.0835C117.138 12.4221 116.466 12.8092 115.668 12.8092Z" fill="#721919"/>
<path d="M121.461 7.92259C120.855 7.92259 120.062 7.65043 119.744 6.62836L120.525 6.3804C120.795 7.25128 121.581 7.10614 121.737 7.0638L121.941 7.86211C121.809 7.89839 121.641 7.92259 121.461 7.92259Z" fill="#721919"/>
<path d="M168.458 22.9997L172.247 23.6347C172.247 23.6347 174.792 21.9897 176.425 23.9976C177.584 25.4249 180.111 26.205 181.804 26.4772C182.459 26.58 182.681 27.4146 182.177 27.844C181.042 28.8116 178.989 29.9607 175.699 29.8518C175.699 29.8518 180.424 38.8207 174.426 41.016L178.701 40.3447C179.595 40.2056 180.406 40.8285 180.514 41.7297C180.856 44.5419 180.958 50.4264 176.923 54.7747C176.437 55.2948 175.597 54.7324 175.879 54.0792C177.134 51.1763 178.761 46.5135 178.058 43.2114C178.058 43.2114 167.882 51.9927 151.9 46.6888C151.9 46.6888 144.449 44.8564 145.176 38.0889C145.176 38.0889 163.703 34.0611 171.7 34.9803C171.7 34.9803 172.607 28.7572 171.154 26.9308C170.097 25.6063 168.854 24.0822 168.248 23.3505C168.128 23.1993 168.26 22.9695 168.458 22.9997Z" fill="#721919"/>
<path d="M153.215 44.2758C153.215 44.2758 153.215 49.2652 143.777 52.0532C143.387 52.1681 143.099 52.5068 143.044 52.9181L142.192 59.5646C142.12 60.121 141.333 60.1633 141.207 59.619C140.415 56.2504 139.4 50.4808 141.225 48.7632C143.861 46.2957 146.401 45.2858 146.22 43.2719" fill="#721919"/>
<path d="M154.944 46.8038C154.944 46.8038 154.944 49.9849 148.928 51.7569C148.676 51.8295 148.496 52.0472 148.46 52.3072L147.914 56.5407C147.865 56.8975 147.367 56.9217 147.289 56.577C146.785 54.43 146.136 50.753 147.301 49.6644C148.982 48.0919 150.597 47.4509 150.483 46.1687" fill="#721919"/>
<path d="M172.181 44.5237C172.181 44.5237 172.817 48.3701 170.584 50.9162C170.445 51.0735 170.451 51.3093 170.59 51.4666L170.992 51.9262C171.154 52.1137 171.448 52.1198 171.616 51.9323C172.583 50.8618 175.308 47.4327 173.952 44.2455L172.181 44.5237Z" fill="#721919"/>
<path d="M172.661 24.1427L172.511 23.8101C172.469 23.7133 168.08 13.8192 175.212 9.47082L175.633 10.1724C169.845 13.7043 172.427 21.3789 173.105 23.1146C173.922 22.7759 175.248 22.0079 175.194 21.0039L176.011 20.9616C176.119 22.9936 173.129 23.9855 173.003 24.0278L172.661 24.1427Z" fill="#721919"/>
<path d="M172.853 24.052C163.211 23.296 163.751 11.1158 163.757 10.9949L164.574 11.0372C164.574 11.0674 164.43 13.9885 165.414 16.9459C166.699 20.8285 169.227 22.9453 172.919 23.2356L172.853 24.052Z" fill="#721919"/>
<path d="M165.558 17.7139L165.174 16.9882L165.366 17.3511L165.174 16.9882C165.198 16.9761 167.342 15.8028 166.945 14.0853L167.744 13.8978C168.284 16.2322 165.666 17.6535 165.558 17.7139Z" fill="#721919"/>
<path d="M173.525 15.4521C172.493 15.4521 171.892 14.9562 171.85 14.9199L172.373 14.2849C172.415 14.3211 173.495 15.1678 175.302 14.0429L175.729 14.7445C174.87 15.2827 174.126 15.4521 173.525 15.4521Z" fill="#721919"/>
<path d="M172.175 19.8488L171.502 19.3771C171.688 19.1049 173.369 16.7281 174.834 16.7281V17.5506C174.054 17.5567 172.787 18.9598 172.175 19.8488Z" fill="#721919"/>
<path d="M165.126 21.8688C164.574 21.8688 163.955 21.6813 163.337 21.1612L163.859 20.5262C165.198 21.651 166.333 20.5927 166.381 20.5443L166.945 21.143C166.597 21.4817 165.925 21.8688 165.126 21.8688Z" fill="#721919"/>
<path d="M170.92 16.9822C170.307 16.9822 169.521 16.71 169.203 15.6879L169.983 15.44C170.253 16.3109 171.04 16.1657 171.196 16.1234L171.4 16.9217C171.268 16.958 171.1 16.9822 170.92 16.9822Z" fill="#721919"/>
<path d="M221.999 13.5349L225.788 14.1699C225.788 14.1699 228.333 12.5249 229.966 14.5389C231.125 15.9661 233.653 16.7463 235.346 17.0184C236 17.1213 236.222 17.9559 235.718 18.3852C234.583 19.3529 232.53 20.502 229.24 20.3931C229.24 20.3931 233.965 29.362 227.967 31.5573L232.242 30.886C233.136 30.7469 233.947 31.3698 234.055 32.2709C234.391 35.0832 234.499 40.9676 230.465 45.316C229.978 45.8361 229.138 45.2737 229.42 44.6205C230.675 41.7176 232.302 37.0547 231.599 33.7526C231.599 33.7526 221.423 42.534 205.441 37.2301C205.441 37.2301 197.99 35.3976 198.717 28.6302C198.717 28.6302 217.25 24.6024 225.241 25.5216C225.241 25.5216 226.148 19.2985 224.695 17.472C223.644 16.1476 222.396 14.6235 221.789 13.8917C221.675 13.7285 221.807 13.4986 221.999 13.5349Z" fill="#721919"/>
<path d="M206.762 34.805C206.762 34.805 206.762 39.7944 197.324 42.5824C196.934 42.6973 196.646 43.036 196.592 43.4472L195.739 50.0937C195.667 50.6501 194.881 50.6925 194.755 50.1482C193.962 46.7796 192.947 41.01 194.773 39.2924C197.408 36.8189 199.948 35.8149 199.768 33.801" fill="#721919"/>
<path d="M208.491 37.339C208.491 37.339 208.491 40.5201 202.475 42.2921C202.223 42.3647 202.043 42.5824 202.013 42.8425L201.467 47.0759C201.419 47.4327 200.92 47.4569 200.836 47.1122C200.332 44.9652 199.684 41.2882 200.848 40.1996C202.529 38.6272 204.144 37.9861 204.03 36.704" fill="#721919"/>
<path d="M225.722 35.0529C225.722 35.0529 226.358 38.8993 224.125 41.4454C223.987 41.6027 223.993 41.8385 224.131 41.9958L224.533 42.4554C224.695 42.6429 224.989 42.6489 225.157 42.4614C226.124 41.3849 228.85 37.9619 227.493 34.7747L225.722 35.0529Z" fill="#721919"/>
<path d="M226.208 14.6719L226.058 14.3393C226.016 14.2425 221.627 4.34835 228.76 0L229.18 0.701542C223.392 4.23344 225.974 11.9081 226.652 13.6438C227.469 13.3051 228.796 12.537 228.742 11.5331L229.558 11.4908C229.666 13.5228 226.676 14.5147 226.55 14.557L226.208 14.6719Z" fill="#721919"/>
<path d="M226.394 14.5812C216.752 13.8252 217.292 1.645 217.298 1.52404L218.115 1.56637C218.115 1.59661 217.971 4.51769 218.955 7.47505C220.24 11.3577 222.768 13.4744 226.46 13.7647L226.394 14.5812Z" fill="#721919"/>
<path d="M219.1 8.24312L218.715 7.51739L218.907 7.88025L218.715 7.51739C218.739 7.50529 220.883 6.33202 220.486 4.61445L221.285 4.42697C221.825 6.76141 219.214 8.18264 219.1 8.24312Z" fill="#721919"/>
<path d="M227.066 5.98125C226.034 5.98125 225.427 5.48534 225.391 5.44905L225.914 4.81403C225.956 4.85032 227.036 5.69701 228.844 4.57212L229.27 5.27366C228.417 5.81192 227.667 5.98125 227.066 5.98125Z" fill="#721919"/>
<path d="M225.722 10.378L225.049 9.90626C225.235 9.63411 226.916 7.25733 228.381 7.25733V8.07983C227.595 8.08588 226.334 9.48896 225.722 10.378Z" fill="#721919"/>
<path d="M218.667 12.3979C218.115 12.3979 217.497 12.2105 216.878 11.6904L217.4 11.0553C218.739 12.1802 219.874 11.1219 219.922 11.0735L220.486 11.6722C220.138 12.0109 219.472 12.3979 218.667 12.3979Z" fill="#721919"/>
<path d="M224.467 7.51134C223.86 7.51134 223.068 7.23919 222.75 6.21711L223.53 5.96915C223.8 6.84003 224.587 6.69489 224.743 6.65255L224.947 7.45086C224.809 7.48715 224.647 7.51134 224.467 7.51134Z" fill="#721919"/>
<path d="M40.6571 21.9897C52.2863 17.9377 64.3718 22.2679 75.4787 25.9692C80.9181 27.7835 86.4235 29.5071 92.133 30.1784C98.3829 30.9102 104.669 30.2691 110.925 29.9788C123.274 29.3982 135.684 30.1784 147.865 32.2891C159.549 34.3151 170.884 38.0949 182.645 39.6855C194.172 41.2398 206.666 40.3447 216.47 33.4503C216.71 33.2809 216.482 32.8878 216.242 33.0572C196.303 47.0759 171.058 36.1052 149.799 32.1742C137.947 29.9849 125.862 29.0535 113.818 29.4103C107.653 29.5918 101.487 30.2994 95.315 29.9849C89.2032 29.6704 83.3135 28.0556 77.52 26.1627C65.7166 22.3103 52.9347 17.218 40.5371 21.5422C40.2609 21.645 40.381 22.0865 40.6571 21.9897Z" fill="#721919"/>
<path d="M42.8665 25.6547C46.2766 24.5056 49.8248 23.9915 53.373 23.4714C57.1373 22.9271 60.9017 22.3949 64.69 22.0502C71.8945 21.397 79.153 21.5059 86.1773 23.423C93.1056 25.322 99.6977 28.3217 106.53 30.5231C113.194 32.6701 119.984 34.436 126.846 35.8149C133.649 37.1817 140.523 38.1675 147.427 38.7662C154.596 39.3892 161.746 39.4496 168.939 39.4255C170.728 39.4194 172.517 39.4315 174.306 39.498C175.957 39.5585 177.626 39.8186 179.271 39.8186C181.204 39.8186 183.077 39.0686 184.782 38.2159C189.261 35.9843 193.152 32.4282 197.924 30.8195C200.2 30.0514 202.463 30.3659 204.811 30.4566C207.512 30.5594 210.226 30.5836 212.928 30.4203C217.431 30.1482 223.062 29.5797 226.364 26.0962C226.568 25.8845 226.244 25.5579 226.046 25.7756C222.84 29.1624 217.298 29.7006 212.928 29.9667C210.442 30.1179 207.951 30.1119 205.465 30.0272C203.616 29.9667 201.659 29.6462 199.822 29.8942C195.271 30.511 191.284 33.8736 187.472 36.1899C185.467 37.4055 183.353 38.6332 181.048 39.1533C179.841 39.4255 178.731 39.3347 177.518 39.2319C175.645 39.0747 173.765 39.0082 171.892 38.984C164.748 38.8872 157.634 39.0505 150.489 38.5485C143.357 38.0466 136.254 37.1334 129.224 35.8089C122.344 34.5147 115.535 32.8334 108.841 30.7711C102.129 28.7027 95.6692 25.9389 88.9871 23.792C81.4764 21.3789 73.8037 20.8648 65.9748 21.4817C62.1444 21.7841 58.3321 22.2982 54.5257 22.8425C50.5513 23.4109 46.5528 23.919 42.7344 25.2071C42.4703 25.3099 42.5903 25.7514 42.8665 25.6547Z" fill="#721919"/>
<path d="M43.635 28.4366C54.982 25.7333 66.3771 22.5401 78.0003 21.3063C83.7158 20.7015 89.5214 20.6108 95.2069 21.518C100.73 22.3949 105.851 24.4149 111.027 26.453C116.412 28.5697 121.749 30.0393 127.483 30.8316C133.084 31.6057 138.548 32.4403 143.975 34.0974C149.18 35.6819 154.283 37.6232 159.567 38.9537C164.91 40.3024 170.313 40.7862 175.807 40.3689C187.802 39.4557 199.593 35.6093 210.04 29.6462C210.292 29.5011 210.064 29.108 209.812 29.2531C200.092 34.7989 189.279 38.4397 178.16 39.6916C172.355 40.3447 166.585 40.1331 160.882 38.8025C155.658 37.5869 150.621 35.7121 145.512 34.0974C140.283 32.4463 135.042 31.388 129.614 30.6622C123.887 29.8942 118.429 28.7995 113.014 26.7372C107.845 24.7656 102.778 22.528 97.3262 21.4333C91.9769 20.3629 86.4895 20.1935 81.0621 20.5745C68.3343 21.4696 55.8706 25.0499 43.5029 27.9952C43.2267 28.0617 43.3528 28.5032 43.635 28.4366Z" fill="#721919"/>
<path d="M40.0808 22.5522C45.5922 24.2758 51.3378 23.7738 56.9813 23.0965C62.8829 22.3889 68.6825 21.8506 74.6262 22.4373C80.6659 23.0299 86.6036 24.4512 92.3551 26.3623C97.9806 28.231 103.348 30.9828 109.087 32.4826C114.803 33.9704 120.717 33.6377 126.546 33.3112C132.772 32.9664 138.992 32.6217 145.218 32.277C151.432 31.9323 157.718 31.4787 163.883 32.5975C169.695 33.6498 175.272 35.7484 181.12 36.6314C184.272 37.1092 187.49 37.2906 190.66 36.9156C193.602 36.5709 196.369 35.6516 199.089 34.5026C205.045 31.9806 210.64 28.5637 216.86 26.6949C217.142 26.6102 217.022 26.1687 216.74 26.2534C211.433 27.85 206.57 30.5655 201.569 32.8999C198.981 34.1034 196.321 35.2888 193.536 35.948C190.558 36.6556 187.478 36.7826 184.434 36.5528C178.448 36.0992 172.787 34.1518 166.975 32.779C161.26 31.4303 155.526 31.2912 149.685 31.5754C143.573 31.8718 137.461 32.2467 131.349 32.5854C125.183 32.9241 118.868 33.6256 112.72 32.7487C106.878 31.9141 101.559 29.2168 96.0774 27.1848C90.602 25.1588 84.9586 23.5259 79.195 22.5764C72.795 21.524 66.4371 21.5119 60.0071 22.2679C53.421 23.042 46.6789 24.1367 40.2009 22.1107C39.9187 22.02 39.7986 22.4614 40.0808 22.5522Z" fill="#721919"/>
</g>
<defs>
<clipPath id="clip0_101_1803">
<rect width="236" height="60" fill="white"/>
</clipPath>
</defs>
</svg>
